<svg width="282" height="27" viewBox="0 0 282 27" fill="none" xmlns="http://www.w3.org/2000/svg">
<path d="M14.0077 21.1982L19.8226 24.8902C20.5725 25.3633 21.4956 24.6595 21.2763 23.7941L19.5919 17.1716C19.5463 16.988 19.5535 16.7953 19.6127 16.6157C19.6719 16.436 19.7807 16.2768 19.9264 16.1563L25.1414 11.8066C25.8222 11.2412 25.476 10.099 24.5876 10.0413L17.7804 9.60289C17.5947 9.59209 17.4161 9.52741 17.2666 9.41677C17.117 9.30612 17.0029 9.1543 16.9382 8.97986L14.3999 2.58803C14.3327 2.40332 14.2103 2.24376 14.0493 2.131C13.8883 2.01825 13.6966 1.95776 13.5 1.95776C13.3034 1.95776 13.1117 2.01825 12.9507 2.131C12.7897 2.24376 12.6673 2.40332 12.6001 2.58803L10.0618 8.97986C9.9971 9.1543 9.883 9.30612 9.73343 9.41677C9.58385 9.52741 9.40529 9.59209 9.21955 9.60289L2.41237 10.0413C1.52397 10.099 1.17784 11.2412 1.85856 11.8066L7.07356 16.1563C7.21932 16.2768 7.32806 16.436 7.38726 16.6157C7.44645 16.7953 7.4537 16.988 7.40815 17.1716L5.85057 23.3096C5.58521 24.3479 6.69282 25.1902 7.58121 24.6248L12.9923 21.1982C13.1441 21.1017 13.3202 21.0504 13.5 21.0504C13.6798 21.0504 13.8559 21.1017 14.0077 21.1982Z" fill="#CCAC00" stroke="#CCAC00" stroke-width="2" stroke-linecap="round" stroke-linejoin="round"/>
<path d="M43.0077 21.1982L48.8226 24.8902C49.5725 25.3633 50.4956 24.6595 50.2763 23.7941L48.5919 17.1716C48.5463 16.988 48.5535 16.7953 48.6127 16.6157C48.6719 16.436 48.7807 16.2768 48.9264 16.1563L54.1414 11.8066C54.8222 11.2412 54.476 10.099 53.5876 10.0413L46.7804 9.60289C46.5947 9.59209 46.4161 9.52741 46.2666 9.41677C46.117 9.30612 46.0029 9.1543 45.9382 8.97986L43.3999 2.58803C43.3327 2.40332 43.2103 2.24376 43.0493 2.131C42.8883 2.01825 42.6966 1.95776 42.5 1.95776C42.3034 1.95776 42.1117 2.01825 41.9507 2.131C41.7897 2.24376 41.6673 2.40332 41.6001 2.58803L39.0618 8.97986C38.9971 9.1543 38.883 9.30612 38.7334 9.41677C38.5839 9.52741 38.4053 9.59209 38.2196 9.60289L31.4124 10.0413C30.524 10.099 30.1778 11.2412 30.8586 11.8066L36.0736 16.1563C36.2193 16.2768 36.3281 16.436 36.3873 16.6157C36.4465 16.7953 36.4537 16.988 36.4081 17.1716L34.8506 23.3096C34.5852 24.3479 35.6928 25.1902 36.5812 24.6248L41.9923 21.1982C42.1441 21.1017 42.3202 21.0504 42.5 21.0504C42.6798 21.0504 42.8559 21.1017 43.0077 21.1982Z" fill="#CCAC00" stroke="#CCAC00" stroke-width="2" stroke-linecap="round" stroke-linejoin="round"/>
<path d="M72.0077 21.1982L77.8226 24.8902C78.5725 25.3633 79.4956 24.6595 79.2763 23.7941L77.5919 17.1716C77.5463 16.988 77.5535 16.7953 77.6127 16.6157C77.6719 16.436 77.7807 16.2768 77.9264 16.1563L83.1414 11.8066C83.8222 11.2412 83.476 10.099 82.5876 10.0413L75.7804 9.60289C75.5947 9.59209 75.4161 9.52741 75.2666 9.41677C75.117 9.30612 75.0029 9.1543 74.9382 8.97986L72.3999 2.58803C72.3327 2.40332 72.2103 2.24376 72.0493 2.131C71.8883 2.01825 71.6966 1.95776 71.5 1.95776C71.3034 1.95776 71.1117 2.01825 70.9507 2.131C70.7897 2.24376 70.6673 2.40332 70.6001 2.58803L68.0618 8.97986C67.9971 9.1543 67.883 9.30612 67.7334 9.41677C67.5839 9.52741 67.4053 9.59209 67.2196 9.60289L60.4124 10.0413C59.524 10.099 59.1778 11.2412 59.8586 11.8066L65.0736 16.1563C65.2193 16.2768 65.3281 16.436 65.3873 16.6157C65.4465 16.7953 65.4537 16.988 65.4081 17.1716L63.8506 23.3096C63.5852 24.3479 64.6928 25.1902 65.5812 24.6248L70.9923 21.1982C71.1441 21.1017 71.3202 21.0504 71.5 21.0504C71.6798 21.0504 71.8559 21.1017 72.0077 21.1982Z" fill="#CCAC00" stroke="#CCAC00" stroke-width="2" stroke-linecap="round" stroke-linejoin="round"/>
<path d="M101.008 21.1982L106.823 24.8902C107.573 25.3633 108.496 24.6595 108.276 23.7941L106.592 17.1716C106.546 16.988 106.554 16.7953 106.613 16.6157C106.672 16.436 106.781 16.2768 106.926 16.1563L112.141 11.8066C112.822 11.2412 112.476 10.099 111.588 10.0413L104.78 9.60289C104.595 9.59209 104.416 9.52741 104.267 9.41677C104.117 9.30612 104.003 9.1543 103.938 8.97986L101.4 2.58803C101.333 2.40332 101.21 2.24376 101.049 2.131C100.888 2.01825 100.697 1.95776 100.5 1.95776C100.303 1.95776 100.112 2.01825 99.9507 2.131C99.7897 2.24376 99.6673 2.40332 99.6001 2.58803L97.0618 8.97986C96.9971 9.1543 96.883 9.30612 96.7334 9.41677C96.5839 9.52741 96.4053 9.59209 96.2196 9.60289L89.4124 10.0413C88.524 10.099 88.1778 11.2412 88.8586 11.8066L94.0736 16.1563C94.2193 16.2768 94.3281 16.436 94.3873 16.6157C94.4465 16.7953 94.4537 16.988 94.4081 17.1716L92.8506 23.3096C92.5852 24.3479 93.6928 25.1902 94.5812 24.6248L99.9923 21.1982C100.144 21.1017 100.32 21.0504 100.5 21.0504C100.68 21.0504 100.856 21.1017 101.008 21.1982Z" fill="#CCAC00" stroke="#CCAC00" stroke-width="2" stroke-linecap="round" stroke-linejoin="round"/>
<path d="M130.008 21.1982L135.823 24.8902C136.573 25.3633 137.496 24.6595 137.276 23.7941L135.592 17.1716C135.546 16.988 135.554 16.7953 135.613 16.6157C135.672 16.436 135.781 16.2768 135.926 16.1563L141.141 11.8066C141.822 11.2412 141.476 10.099 140.588 10.0413L133.78 9.60289C133.595 9.59209 133.416 9.52741 133.267 9.41677C133.117 9.30612 133.003 9.1543 132.938 8.97986L130.4 2.58803C130.333 2.40332 130.21 2.24376 130.049 2.131C129.888 2.01825 129.697 1.95776 129.5 1.95776C129.303 1.95776 129.112 2.01825 128.951 2.131C128.79 2.24376 128.667 2.40332 128.6 2.58803L126.062 8.97986C125.997 9.1543 125.883 9.30612 125.733 9.41677C125.584 9.52741 125.405 9.59209 125.22 9.60289L118.412 10.0413C117.524 10.099 117.178 11.2412 117.859 11.8066L123.074 16.1563C123.219 16.2768 123.328 16.436 123.387 16.6157C123.446 16.7953 123.454 16.988 123.408 17.1716L121.851 23.3096C121.585 24.3479 122.693 25.1902 123.581 24.6248L128.992 21.1982C129.144 21.1017 129.32 21.0504 129.5 21.0504C129.68 21.0504 129.856 21.1017 130.008 21.1982Z" fill="#CCAC00" stroke="#CCAC00" stroke-width="2" stroke-linecap="round" stroke-linejoin="round"/>
</svg>
